<?xml version="1.0" encoding="iso-8859-1"?>
<!-- Generator: Adobe Illustrator 19.0.0, SVG Export Plug-In . SVG Version: 6.00 Build 0)  -->
<svg version="1.1" id="Layer_1" xmlns="http://www.w3.org/2000/svg" xmlns:xlink="http://www.w3.org/1999/xlink" x="0px" y="0px"
	 viewBox="0 0 301.295 301.295" style="enable-background:new 0 0 301.295 301.295;" xml:space="preserve">
<g>
	<g>
		<path d="M294.127,35.141H181.84c-1.87,0-3.666,0.73-5.004,2.036l-29.104,28.375H7.168C3.209,65.552,0,68.762,0,72.72v186.265
			c0,3.926,3.267,7.169,7.169,7.169c0.007,0,0.013,0,0.019,0h50.975c0.009,0,0.017,0,0.026,0h235.938
			c3.959,0,7.169-3.21,7.169-7.169V42.31C301.295,38.351,298.086,35.141,294.127,35.141z M286.958,251.817H75.482l14.101-14.099
			c2.8-2.8,2.8-7.339,0-10.139c-2.8-2.799-7.338-2.8-10.138,0.001l-24.238,24.238H24.475l19.974-19.974c2.8-2.8,2.8-7.339,0-10.139
			c-2.8-2.799-7.338-2.799-10.138,0l-19.974,19.974v-31.378l24.166-24.165c2.8-2.8,2.8-7.339,0-10.139
			c-2.799-2.799-7.338-2.799-10.138,0l-14.028,14.028V79.889h272.621V251.817z M286.958,65.551H168.269l16.487-16.073h102.202
			V65.551z"/>
	</g>
</g>
<g>
</g>
<g>
</g>
<g>
</g>
<g>
</g>
<g>
</g>
<g>
</g>
<g>
</g>
<g>
</g>
<g>
</g>
<g>
</g>
<g>
</g>
<g>
</g>
<g>
</g>
<g>
</g>
<g>
</g>
</svg>
