<?xml version="1.0" encoding="iso-8859-1"?>
<!-- Generator: Adobe Illustrator 16.0.0, SVG Export Plug-In . SVG Version: 6.00 Build 0)  -->
<!DOCTYPE svg PUBLIC "-//W3C//DTD SVG 1.1//EN" "http://www.w3.org/Graphics/SVG/1.1/DTD/svg11.dtd">
<svg version="1.1" id="Capa_1" xmlns="http://www.w3.org/2000/svg" xmlns:xlink="http://www.w3.org/1999/xlink" x="0px" y="0px"
	 width="466.071px" height="466.071px" viewBox="0 0 466.071 466.071" style="enable-background:new 0 0 466.071 466.071;"
	 xml:space="preserve">
<g>
	<path d="M466.07,150.951c0-32.526-26.469-58.988-59.004-58.988h-85.345V76.452c0-11.642-9.469-21.112-21.106-21.112H21.109
		C9.469,55.34,0,64.811,0,76.452v275.291c0,32.525,26.468,58.988,59,58.988h348.067c32.535,0,59.004-26.463,59.004-58.988
		L466.07,150.951L466.07,150.951z M236.717,82.406h57.943v9.557h-57.943V82.406z M177.38,82.406h32.271v9.557H177.38V82.406z
		 M27.067,82.406h123.251v23.089c0,7.462,6.069,13.532,13.532,13.532h243.216c14.104,0,26.344,9.157,30.449,22.787l0.387,1.289
		H27.067V82.406z M439.008,351.743c0,17.604-14.328,31.924-31.94,31.924H58.999c-17.607,0-31.933-14.32-31.933-31.924V170.166
		h411.941L439.008,351.743L439.008,351.743z"/>
</g>
<g>
</g>
<g>
</g>
<g>
</g>
<g>
</g>
<g>
</g>
<g>
</g>
<g>
</g>
<g>
</g>
<g>
</g>
<g>
</g>
<g>
</g>
<g>
</g>
<g>
</g>
<g>
</g>
<g>
</g>
</svg>
