<?xml version="1.0" encoding="iso-8859-1"?>
<!-- Generator: Adobe Illustrator 19.0.0, SVG Export Plug-In . SVG Version: 6.00 Build 0)  -->
<svg version="1.1" id="Layer_1" xmlns="http://www.w3.org/2000/svg" xmlns:xlink="http://www.w3.org/1999/xlink" x="0px" y="0px"
	 viewBox="0 0 512 512" style="enable-background:new 0 0 512 512;" xml:space="preserve">
<g>
	<g>
		<path d="M215.77,59.535l-47.628-47.628H0v434.605c0,29.546,24.037,53.581,53.581,53.581h404.837
			c29.545,0,53.581-24.035,53.581-53.581V59.535H215.77z M476.279,446.512c0,9.849-8.012,17.86-17.86,17.86H53.581
			c-9.848,0-17.86-8.011-17.86-17.86v-28.323L136.93,316.979l95.256,95.256L375.07,269.351l101.209,101.209V446.512z
			 M476.279,320.044L375.07,218.835L232.186,361.718l-95.256-95.256L35.721,367.672V47.628h117.625l47.628,47.628h275.305V320.044z"
			/>
	</g>
</g>
<g>
	<g>
		<path d="M232.186,154.791c-29.545,0-53.581,24.035-53.581,53.581s24.037,53.581,53.581,53.581s53.581-24.035,53.581-53.581
			S261.731,154.791,232.186,154.791z M232.186,226.233c-9.848,0-17.86-8.012-17.86-17.86c0-9.848,8.012-17.86,17.86-17.86
			s17.86,8.012,17.86,17.86C250.047,218.22,242.034,226.233,232.186,226.233z"/>
	</g>
</g>
<g>
</g>
<g>
</g>
<g>
</g>
<g>
</g>
<g>
</g>
<g>
</g>
<g>
</g>
<g>
</g>
<g>
</g>
<g>
</g>
<g>
</g>
<g>
</g>
<g>
</g>
<g>
</g>
<g>
</g>
</svg>
