<?xml version="1.0" encoding="iso-8859-1"?>
<!-- Generator: Adobe Illustrator 19.0.0, SVG Export Plug-In . SVG Version: 6.00 Build 0)  -->
<svg version="1.1" id="Layer_1" xmlns="http://www.w3.org/2000/svg" xmlns:xlink="http://www.w3.org/1999/xlink" x="0px" y="0px"
	 viewBox="0 0 512 512" style="enable-background:new 0 0 512 512;" xml:space="preserve">
<g>
	<g>
		<path d="M501.801,106.686H165.405l-39.842-40.293c-1.915-1.938-4.526-3.028-7.252-3.028H10.199C4.567,63.365,0,67.932,0,73.564
			v364.872c0,5.632,4.567,10.199,10.199,10.199h491.602c5.632,0,10.199-4.567,10.199-10.199V116.885
			C512,111.253,507.433,106.686,501.801,106.686z M491.602,428.237H20.398V83.763h93.655l39.842,40.293
			c1.915,1.938,4.526,3.028,7.252,3.028h330.454V428.237z"/>
	</g>
</g>
<g>
	<g>
		<path d="M199.904,393.819H45.896c-5.632,0-10.199,4.567-10.199,10.199s4.567,10.199,10.199,10.199h154.008
			c5.632,0,10.199-4.567,10.199-10.199S205.536,393.819,199.904,393.819z"/>
	</g>
</g>
<g>
	<g>
		<path d="M244.781,393.819h-10.199c-5.632,0-10.199,4.567-10.199,10.199s4.567,10.199,10.199,10.199h10.199
			c5.632,0,10.199-4.567,10.199-10.199S250.413,393.819,244.781,393.819z"/>
	</g>
</g>
<g>
</g>
<g>
</g>
<g>
</g>
<g>
</g>
<g>
</g>
<g>
</g>
<g>
</g>
<g>
</g>
<g>
</g>
<g>
</g>
<g>
</g>
<g>
</g>
<g>
</g>
<g>
</g>
<g>
</g>
</svg>
