<svg height="300px" width="300px" fill="#000000" xmlns="http://www.w3.org/2000/svg" xmlns:xlink="http://www.w3.org/1999/xlink" version="1.1" x="0px" y="0px" viewBox="0 0 100 100" enable-background="new 0 0 100 100" xml:space="preserve"><path d="M30.209,40.697h39.584c0.828,0,1.5-0.671,1.5-1.5s-0.672-1.5-1.5-1.5H30.209c-0.829,0-1.5,0.671-1.5,1.5  S29.38,40.697,30.209,40.697z M89.35,60.338h-1.777V17.43h1.777c2.636,0,4.779-2.144,4.779-4.779s-2.144-4.779-4.779-4.779H51.5  V4.452c0-0.829-0.672-1.5-1.5-1.5c-0.829,0-1.5,0.671-1.5,1.5v3.419H10.65c-2.635,0-4.779,2.144-4.779,4.779  s2.144,4.779,4.779,4.779h1.779v42.908H10.65c-2.635,0-4.779,2.144-4.779,4.778c0,2.636,2.144,4.779,4.779,4.779h35.504  L19.473,94.444c-0.61,0.561-0.649,1.51-0.088,2.119c0.296,0.321,0.7,0.484,1.104,0.484c0.363,0,0.727-0.131,1.015-0.396L48.5,71.813  v23.734c0,0.828,0.671,1.5,1.5,1.5c0.828,0,1.5-0.672,1.5-1.5V71.813l26.996,24.838c0.288,0.266,0.652,0.396,1.016,0.396  c0.404,0,0.809-0.163,1.104-0.484c0.562-0.609,0.521-1.559-0.088-2.119L53.846,69.896H89.35c2.636,0,4.779-2.144,4.779-4.779  C94.129,62.481,91.985,60.338,89.35,60.338z M10.65,14.43c-0.981,0-1.779-0.798-1.779-1.779s0.798-1.779,1.779-1.779H89.35  c0.981,0,1.779,0.798,1.779,1.779s-0.798,1.779-1.779,1.779H10.65z M84.572,17.43v42.908H15.43V17.43H84.572z M89.35,66.896H10.65  c-0.981,0-1.779-0.798-1.779-1.779c0-0.98,0.798-1.778,1.779-1.778H89.35c0.981,0,1.779,0.798,1.779,1.778  C91.129,66.098,90.331,66.896,89.35,66.896z"/></svg>