<svg height="300px" width="300px" fill="#000000" xmlns="http://www.w3.org/2000/svg" xmlns:xlink="http://www.w3.org/1999/xlink" version="1.1" x="0px" y="0px" viewBox="0 0 100 100" enable-background="new 0 0 100 100" xml:space="preserve"><path d="M88.1,61.1V12h2.4c1.2,0,2.1-1,2.1-2.1s-1-2.1-2.1-2.1H9.4c-1.2,0-2.1,1-2.1,2.1s1,2.1,2.1,2.1h2.8v49.1c0,2.7,2.2,5,5,5h66  C85.9,66,88.1,63.8,88.1,61.1z M16.4,61.1V12h67.4v49.1c0,0.4-0.3,0.7-0.7,0.7h-66C16.8,61.8,16.4,61.5,16.4,61.1z M48.9,90.2v-7.4  l-8.9,8.9c-0.4,0.4-1,0.6-1.5,0.6c-0.5,0-1.1-0.2-1.5-0.6c-0.8-0.8-0.8-2.2,0-3l11.9-11.9v-3.9h-5.8c-1.2,0-2.1-1-2.1-2.1  c0-1.2,1-2.1,2.1-2.1h15.6c1.2,0,2.1,1,2.1,2.1c0,1.2-1,2.1-2.1,2.1h-5.5v3.9L65,88.6c0.8,0.8,0.8,2.2,0,3c-0.4,0.4-1,0.6-1.5,0.6  c-0.5,0-1.1-0.2-1.5-0.6l-8.9-8.9v7.4c0,1.2-1,2.1-2.1,2.1C49.8,92.3,48.9,91.3,48.9,90.2z M81.8,36.2c0.8,0.8,0.8,2.2,0,3l-4,4  c-0.4,0.4-1,0.6-1.5,0.6c-0.5,0-1.1-0.2-1.5-0.6c-0.8-0.8-0.8-2.2,0-3l2.5-2.5l-2.5-2.5c-0.8-0.8-0.8-2.2,0-3c0.8-0.8,2.2-0.8,3,0  L81.8,36.2z M25.9,35.2l-2.5,2.5l2.5,2.5c0.8,0.8,0.8,2.2,0,3c-0.4,0.4-1,0.6-1.5,0.6c-0.5,0-1.1-0.2-1.5-0.6l-4-4  c-0.8-0.8-0.8-2.2,0-3l4-4c0.8-0.8,2.2-0.8,3,0C26.7,33,26.7,34.3,25.9,35.2z M69.7,18.2H30.3c-1.2,0-2.1,1-2.1,2.1v33.1  c0,1.2,1,2.1,2.1,2.1h39.5c1.2,0,2.1-1,2.1-2.1V20.3C71.9,19.2,70.9,18.2,69.7,18.2z M67.6,22.5v15.2l-7.5-7.5c-0.8-0.8-2.2-0.8-3,0  L44.8,42.5l-3.6-3.6c-0.8-0.8-2.2-0.8-3,0l-5.8,5.8V22.5H67.6z M32.4,51.3v-0.7l7.3-7.3l3.6,3.6c0.8,0.8,2.2,0.8,3,0l12.4-12.4l9,9  v7.7H32.4z M42,36.5c3.1,0,5.7-2.5,5.7-5.7c0-3.1-2.5-5.7-5.7-5.7c-3.1,0-5.7,2.5-5.7,5.7C36.3,33.9,38.9,36.5,42,36.5z M42,29.3  c0.8,0,1.4,0.6,1.4,1.4c0,0.8-0.6,1.4-1.4,1.4c-0.8,0-1.4-0.6-1.4-1.4C40.6,30,41.2,29.3,42,29.3z"/></svg>