<svg version="1.1" id="Layer_1" xmlns="http://www.w3.org/2000/svg" xmlns:xlink="http://www.w3.org/1999/xlink" x="0px" y="0px"
	 viewBox="0 0 64 64" enable-background="new 0 0 64 64" xml:space="preserve">
<g id="Zoom">
	<path d="M31.5706997,21.2138996h-8.8792v-8.8773994c0-0.5452003-0.4412994-0.9863005-0.986599-0.9863005
		c-0.5454006,0-0.9866009,0.4411001-0.9866009,0.9863005v8.8773994h-8.8792992c-0.5453005,0-0.986577,0.4412003-0.986577,0.9864006
		s0.4412766,0.9864006,0.986577,0.9864006h8.8792992v8.8773975c0,0.5452003,0.4412003,0.9864006,0.9866009,0.9864006
		c0.5452995,0,0.986599-0.4412003,0.986599-0.9864006v-8.8773975h8.8792c0.5454006,0,0.9866009-0.4412003,0.9866009-0.9864006
		S32.1161003,21.2138996,31.5706997,21.2138996z"/>
	<path d="M62.5547981,53.6853981l-21.5550995-21.550499c1.5368996-2.977499,2.4101028-6.3530998,2.4101028-9.9345989
		C43.4098015,10.2156,33.6921997,0.5,21.7049007,0.5S0.0000008,10.2156,0.0000008,22.2003002
		c0,11.9848003,9.7175999,21.7003002,21.7049007,21.7003002c4.100399,0,7.9345989-1.1379013,11.205801-3.1134987
		l21.2724991,21.2679977C55.1148987,62.986599,56.3539009,63.5,57.6718979,63.5c1.3180008,0,2.5571022-0.513401,3.4878006-1.4449005
		l1.3950996-1.3947983C63.4864235,59.7298012,64,58.4911003,64,57.1733017
		C64,55.8555984,63.4864235,54.6167984,62.5547981,53.6853981z M1.9731008,22.2003002
		c0-10.8778,8.8516998-19.7275009,19.7318001-19.7275009s19.731699,8.8497,19.731699,19.7275009
		s-8.8516006,19.727499-19.731699,19.727499S1.9731008,33.0780983,1.9731008,22.2003002z M61.1596985,59.2654991
		l-1.3950996,1.3948021c-1.1175995,1.1184006-3.0676994,1.116497-4.1862984,0L34.5812988,39.6677017
		c2.132-1.5736008,3.9622993-3.5293999,5.3972015-5.7642021l21.1811981,21.1767006
		c0.5587997,0.5596008,0.8670998,1.3022995,0.8670998,2.0931015C62.0267982,57.9631996,61.7184982,58.7067986,61.1596985,59.2654991
		z"/>
</g>
</svg>
